<svg width="18" height="19" viewBox="0 0 18 19" xmlns="http://www.w3.org/2000/svg"><title>Group 4</title><g transform="translate(-11 -11)" fill="none" fill-rule="evenodd"><circle cx="20" cy="20" r="20"/><g fill="#0072C6"><path d="M22.176 14.964v3.657l1.234.806c.033.01.103.01.136 0l5.312-3.708c0-.44-.395-.754-.62-.754h-6.062z"/><path d="M22.176 19.986l1.126.8c.16.122.35 0 .35 0-.19.122 5.207-3.59 5.207-3.59v6.722c0 .73-.454 1.038-.962 1.038h-5.723v-4.97zM16.344 18.3c-.384 0-.69.186-.916.56-.225.372-.34.866-.34 1.48 0 .624.115 1.117.34 1.48.226.362.523.543.89.543.376 0 .676-.176.897-.53.22-.35.333-.84.333-1.467 0-.652-.108-1.16-.323-1.523-.214-.362-.508-.543-.88-.543z"/><path d="M11 13.107v14.308l10.51 2.282V11L11 13.107zm7.034 9.573c-.444.605-1.023.908-1.738.908-.697 0-1.264-.293-1.702-.88-.44-.587-.658-1.35-.658-2.293 0-.995.222-1.8.668-2.414.445-.614 1.035-.92 1.77-.92.693 0 1.255.292 1.683.88.43.59.643 1.364.643 2.327 0 .99-.222 1.787-.666 2.393z"/></g></g></svg>